<svg id="Layer_1" data-name="Layer 1" xmlns="http://www.w3.org/2000/svg" viewBox="0 0 4000 4000"><defs><style>.cls-1{fill:#7dd4ff;}.cls-2{fill:#e3e5fa;}.cls-3{fill:#650000;}.cls-4{fill:#fff;}.cls-5{opacity:0.8;}.cls-6{opacity:0.56;}.cls-7{opacity:0.3;}.cls-8{opacity:0.5;}.cls-9{fill:#ed4425;}.cls-10{fill:#760153;}.cls-11{opacity:0.2;}</style></defs><rect class="cls-1" width="4000" height="4000"/><path class="cls-2" d="M3064.71,1898.17l-.05,0c-38.37,116.47-125.37,198.1-243.15,206.91-53.09,4-85.81,59.69-62.71,107.66l-197.6-410.4c31.39,65.18,98.19,107,170.44,104,31.62-1.29,57.73-7.7,79-18.1,208.11-101.75-55-587.22-257.92-428.25a179.24,179.24,0,0,0-23.75,22.47c-47.21,54-57.67,133.1-25.63,199.64l-192.9-400.63c22,45.63,84.51,51.15,114.46,10.31,52.07-70.85,123.62-110.35,202.59-112.63,120.75-3.59,258.78,79.78,370.88,271C3091.09,1608.34,3105.86,1773.31,3064.71,1898.17Z"/><path class="cls-3" d="M2756.55,2213.86,2559,1803.45l4.5-2.17.09.19c31.45,65.13,97.28,105.46,168,102.41,30.06-1.23,56.29-7.24,78-17.85,61.84-30.24,74.75-90.69,74.71-136.09-.13-115-83.66-256.53-178.75-302.77-53.42-26-105.71-20.85-151.23,14.82a176.53,176.53,0,0,0-23.42,22.15c-47,53.78-57,131.07-25.26,196.9l-4.5,2.17L2308.2,1282.66l0-.08,4.5-2.17a64.48,64.48,0,0,0,110.19,9.93c52.18-71,124.81-111.35,204.54-113.66,133.42-3.81,269.36,95.26,373.11,272.22,86.15,146.93,111.05,315.18,66.58,450.05l-.35,1c-40.4,121.61-131.94,199.23-245,207.7a73.34,73.34,0,0,0-58.13,36.41,71.49,71.49,0,0,0-2.51,67.67Zm-174.28-373.49L2749,2186.68a76.55,76.55,0,0,1,10.22-45.16,78.35,78.35,0,0,1,62.09-38.9c111.3-8.33,201.38-85,241-205.2l.35-1c43.6-133.38,18.78-299.66-66.46-445-102.8-175.34-237.22-273.81-368.64-269.75-78.16,2.26-149.42,41.9-200.65,111.61A69.65,69.65,0,0,1,2324,1303.9l162.72,337.95c-12.65-56.84,1.6-116.68,40.37-161a181.65,181.65,0,0,1,24.09-22.8c47.14-36.93,101.26-42.24,156.51-15.38,98.28,47.79,181.42,188.5,181.56,307.26,0,46.83-13.36,109.22-77.51,140.59-22.3,10.91-49.21,17.09-80,18.36C2673.66,1911.3,2618.49,1885.25,2582.27,1840.37Z"/><path class="cls-4" d="M2851,1864.51c-1.94.93-3.83,1.84-5.86,2.71,147-122.68-65.57-514.93-252.31-430.79.09,0,.16-.14.25-.18C2796,1277.28,3059.09,1762.76,2851,1864.51Z"/><path class="cls-2" d="M2257,1170.49l542.26,1126.26c60.87,126.41-156.69,357.46-486,516q-28.38,13.67-56.56,26c-308.28,135.06-592.58,151.3-649.95,32.14L1064.45,1744.66c-38.55-80.05,34.54-202.09,177-321,82.5-69,188.21-136.84,309-195,298-143.5,585.38-178.46,682.44-90.06l0,0A104.07,104.07,0,0,1,2257,1170.49Z"/><path class="cls-3" d="M1805.54,2954c-101.58,0-174.63-27-201.08-82L1062.19,1745.75c-37.78-78.49,28.63-199.61,177.67-324,85.45-71.45,192.5-139,309.56-195.36,143.43-69.06,291.65-116,417.35-132.23,124.9-16.09,220-1,267.85,42.57l.41.4a106.51,106.51,0,0,1,24.19,32.3l542.26,1126.25c61.38,127.48-157.16,360.47-487.17,519.36-18.09,8.71-36.62,17.23-56.64,26.05C2086.94,2915.86,1926.14,2954,1805.54,2954Zm252.85-1861.13a716.61,716.61,0,0,0-91,6.25c-125.19,16.14-272.86,62.94-415.83,131.77-116.69,56.18-223.37,123.51-308.52,194.69-147.16,122.85-213.09,241.73-176.36,318L1609,2869.83c27.17,56.43,108.37,84.09,228.5,77.85s268.73-45.71,418.2-111.19c20-8.79,38.44-17.29,56.48-26,327.53-157.7,545-387.69,484.84-512.69L2254.72,1171.58a101.66,101.66,0,0,0-23.45-31.13l-.4-.39C2196.39,1108.94,2136.62,1092.85,2058.39,1092.85Z"/><g class="cls-5"><path class="cls-4" d="M2304,2816c10.76-4.74,21.53-9.59,32.36-14.64-7.62,3.89-15.3,7.64-23.1,11.4q-28.38,13.67-56.56,26c-308.28,135.06-592.58,151.3-649.95,32.14L1064.45,1744.66c-38.55-80.05,34.54-202.09,177-321,82.5-69,188.21-136.84,309-195,8.24-4,16.42-7.85,24.64-11.64-111.42,55.59-209.07,119.25-286.38,183.89-142.46,118.92-215.56,241-177,321L1654,2848.14C1711.38,2967.3,1995.68,2951.06,2304,2816Z"/></g><path class="cls-3" d="M1806.76,2968.57c-108.15,0-186.71-29.55-215.83-90l-542.28-1126.3c-32.81-68.14,2.6-162.46,99.72-265.57,93.24-99,233.35-196.23,394.53-273.83s324.54-126.47,460.06-137.63c141.16-11.65,237,19.52,269.78,87.66L2815,2289.16c66.07,137.23-151,374.16-494.2,539.39C2128.88,2921,1944,2968.57,1806.76,2968.57Zm251.43-1860.72q-24.87,0-52.36,2.25c-131.35,10.81-290.36,58.49-447.75,134.27s-293.86,170.36-384.23,266.3c-85.23,90.49-119.37,173-93.67,226.39l542.28,1126.29c22.83,47.4,89,70.25,180.7,70.25,131.93,0,316.87-47.21,502.48-136.58,314.66-151.5,533.49-377.11,477.85-492.67L2241.21,1178.06h0C2219.3,1132.56,2153.75,1107.85,2058.19,1107.85Z"/><path class="cls-3" d="M2142,1396.55C1971.48,1629,1565.08,1781,1325.25,1782c-65.73.29-118.9-10.79-151.35-34.62-112-128-177.59-283.09-92.13-379.78,24.57-27.81,62.45-41.23,98.22-31.26,62.44,17.44,78,89.51,54.09,191.77-18.34,78.09,81.88,99.87,108.68,14,13.72-43.89,67.82-59.12,101-27.25a263.79,263.79,0,0,1,20.91,22.9q5,6,10.11,12.94c13.22,17.78,31.79,32.37,54.93,43.31C1649.13,1650.61,1889.84,1608.74,2142,1396.55Z"/><g class="cls-6"><path class="cls-4" d="M1466.44,1540c-2.61,2.42-5.22,5-7.81,7.42-33.2-30.24-86.05-14.84-99.6,28.48-23.84,76.35-105.69,67.59-110.64,9.82,26.29,23,76.57,13.46,94.37-43.61,13.72-43.89,67.82-59.12,101-27.25A265.17,265.17,0,0,1,1466.44,1540Z"/></g><g class="cls-6"><path class="cls-4" d="M1210.27,1745.1c35.57,26.16,96.15,36.94,170.75,34.21-91.23,8-165.91-1.69-207.12-32-112-128-177.59-283.09-92.13-379.78,22-24.86,54.58-38.21,86.8-33.64a102.43,102.43,0,0,0-50.43,31.38C1032.68,1462,1098.31,1617.1,1210.27,1745.1Z"/></g><path class="cls-3" d="M1481.36,1558.75c53.73-36.7,114.58-71.9,180.7-103.74,201.67-97.09,397.61-136.29,512.24-111.25C1941.62,1612.44,1629.05,1658,1481.36,1558.75Z"/><path class="cls-3" d="M1331.52,1813.58c-82.28,0-142.88-20-173.8-58.26a17.5,17.5,0,1,1,27.21-22c58.6,72.47,289.37,65.51,574.1-71.57,161-77.54,298.94-180.55,368.89-275.55,42.5-57.76,56.65-108.8,39.84-143.73a17.5,17.5,0,0,1,31.53-15.18c23,47.84,8.1,110-43.18,179.66-73.19,99.4-216,206.43-381.89,286.34-130.24,62.7-263.93,104.06-376.45,116.46A605.83,605.83,0,0,1,1331.52,1813.58Z"/><g class="cls-7"><path class="cls-3" d="M1891.92,1547.59c-176.56,72.08-329.41,103.38-410.53,11.2-49.83-79.06-95.41-71.71-138.63-16.72-57.9,76.27-94.48,73-109.3-11.36l2-26.71c3.52-3.2,7.12-6.43,10.75-9.62q10.1-8.94,20.72-17.8c73.25-61.26,164.77-121.62,269-175a24.62,24.62,0,0,1,34.1,12.81c19.64,49.07,58.92,103.82,137.34,118.88,0,0-54.91,20-68.3,37.71C1609.45,1510.12,1669.47,1603.3,1891.92,1547.59Z"/></g><path class="cls-3" d="M1481.38,1576.25a17.5,17.5,0,0,1-9.89-31.94c55.81-38.13,117.37-73.48,183-105.06,200-96.3,400.61-139.44,523.56-112.58a17.5,17.5,0,1,1-7.47,34.19c-113.91-24.86-310.54,18.26-500.91,109.92-64,30.83-124.06,65.29-178.41,102.42A17.38,17.38,0,0,1,1481.38,1576.25Z"/><path class="cls-3" d="M1173.92,1764.84a17.47,17.47,0,0,1-13.18-6c-61.49-70.29-104.27-142.28-123.71-208.19-23-77.94-12-145.27,31.63-194.71,29.66-33.55,75.19-47.9,116-36.5s103.59,54.11,66.43,212.6c-6.68,28.46,6.78,42.88,20.34,46.58,18.42,5,43.4-5.89,54.61-41.79a79.75,79.75,0,0,1,56.51-54,77.4,77.4,0,0,1,73.31,19.39,309.06,309.06,0,0,1,32.9,38c22.73,30.5,65,50.76,119.13,57,147.7,17.11,343.14-62.89,522.83-214.1a17.5,17.5,0,0,1,22.53,26.78c-169.87,143-355,224.56-505.3,224.57a380.8,380.8,0,0,1-44.1-2.49c-64.7-7.51-114.2-32-143.15-70.89a275.74,275.74,0,0,0-29.11-33.69,42,42,0,0,0-40.34-10.71,45,45,0,0,0-31.8,30.55c-17.31,55.46-62,74.74-97.25,65.13-29.84-8.16-56.71-39.28-45.18-88.34,13.08-55.82,25.07-152.26-41.76-170.9-28-7.81-59.54,2.39-80.38,26-81.44,92.2-5.77,244.7,92.19,356.68a17.49,17.49,0,0,1-13.16,29Z"/><path class="cls-3" d="M1072.83,1218.56c-10.67-89.73,27.82-212.43,124.68-203.41,34.78,3.24,65.06,26.92,72.92,61,10.49,45.47-23.78,82.67-87.93,81.93-42.57-.49-83.24,19.65-106.44,55.35C1075,1215.06,1073.89,1216.79,1072.83,1218.56Z"/><g class="cls-7"><path class="cls-3" d="M1270.42,1076.13c10.5,45.44-23.76,82.63-87.93,81.9-42.57-.48-83.26,19.67-106.42,55.35-1.08,1.68-2.18,3.43-3.23,5.16-.5-4.15-.86-8.36-1.18-12.59,9.55-37.34,37-67.92,72.9-83.26,57.63-24.59,74.56-70.81,49.26-107.8,1.25.07,2.46.15,3.69.28C1232.3,1018.4,1262.56,1042.06,1270.42,1076.13Z"/></g><g class="cls-6"><path class="cls-4" d="M1257.93,1045.9a86.15,86.15,0,0,0-37.08-12.22c-81.22-7.57-121.42,77.55-126,158.15a115.86,115.86,0,0,0-17.24,20.78c-1.07,1.69-2.17,3.44-3.23,5.17-10.67-89.71,27.82-212.4,124.67-203.37C1222.63,1016.62,1244.1,1028.14,1257.93,1045.9Z"/></g><path class="cls-3" d="M979.14,1217.59C833.34,1115,782.74,978.26,848.81,879.49c97.57-118,213.85-19.77,132.7,136.53C952.58,1078.05,944.54,1143.91,979.14,1217.59Z"/><g class="cls-7"><path class="cls-3" d="M981.49,1016c-28.9,62-37,127.9-2.34,201.57a541.38,541.38,0,0,1-49.62-39.43c-18.07-53.45-12.83-104.81,5.2-155.06,41-100.42,9.42-172.12-41.12-182.8C977,792.48,1050.4,883.34,981.49,1016Z"/></g><g class="cls-6"><path class="cls-4" d="M968.31,834.9c-26.29,1.51-56.39,17.5-84.9,52-58.49,87.49-25.49,204.78,84.16,301.71a258.58,258.58,0,0,0,11.58,29C833.35,1115,782.73,978.25,848.83,879.5,891,828.52,936.66,817.9,968.31,834.9Z"/></g><path class="cls-3" d="M1072.83,1236.06a17.51,17.51,0,0,1-17.38-15.44c-7.16-60.24,6.07-142,51.78-188.9,24.88-25.53,56.71-37.24,91.9-34,43.5,4.06,79,34,88.35,74.45,5.76,25,.66,49-14.38,67.7-18.55,23.05-50,35.68-88.72,35.68l-3.44,0c-37.23,0-70.87,17.65-90.21,47.4q-1.45,2.25-2.9,4.64A17.5,17.5,0,0,1,1072.83,1236.06Zm114.84-203.87c-21.25,0-39.85,8-55.37,24-24.56,25.19-40.46,69.7-43.3,116.75,25.11-20.71,57.4-32.37,91.94-32.37h1.76c28.84.51,51.13-7.7,63.14-22.62,8.28-10.28,10.88-23.38,7.54-37.88-6-25.74-29.05-44.82-57.49-47.46Q1191.72,1032.19,1187.67,1032.19Z"/><path class="cls-3" d="M979.14,1235.09a17.46,17.46,0,0,1-10.08-3.19C815.73,1124,761.56,978.44,834.27,869.76a16.37,16.37,0,0,1,1.06-1.42c56.33-68.14,114.77-66.85,147.7-45,42.33,28,64.79,102.69,14.19,200.44-30.47,65.53-31.19,124.77-2.24,186.4a17.5,17.5,0,0,1-15.84,24.94ZM862.87,890c-53.28,80.6-20.5,187.63,80.9,277.5-10.84-51.88-3.55-104.3,21.88-158.82.1-.23.22-.45.33-.67,39-75.22,28.42-135.15-2.27-155.47C936.46,834.44,896.93,849.14,862.87,890Z"/><path class="cls-3" d="M2758.84,2230.27a17.51,17.51,0,0,1-15.79-9.91,92.38,92.38,0,0,1,3.2-86.32,93.37,93.37,0,0,1,74-46.37c88.05-6.61,161-56.94,205.46-141.74,70.77-135,54.52-321.59-42.42-486.91-94.06-160.43-216.58-256-336.12-262.15-81.24-4.09-155.18,33.21-208.14,105.32a84.48,84.48,0,0,1-144.32-13.09,17.5,17.5,0,0,1,31.53-15.19,48.89,48.89,0,0,0,39.85,27.73,49.53,49.53,0,0,0,44.73-20.17c60.16-81.92,144.86-124.4,238.15-119.55,133.46,6.89,262.91,106.12,364.51,279.39,103,175.66,119.56,375.24,43.23,520.87-50.26,95.88-133.3,152.85-233.85,160.39a57.64,57.64,0,0,0-46.27,29,56.64,56.64,0,0,0-2,53.63,17.52,17.52,0,0,1-15.75,25.1Z"/><path class="cls-3" d="M2724.34,1924c-75.6,0-145.19-44.09-178.88-114.06l-57.9-120.27c-40.71-84.53-17.86-186.92,54.34-243.48,59.93-47,131-47.32,200.07-1,52.25,35,99.65,94.93,130.05,164.38,31.2,71.25,40.17,143.79,24.62,199-19.94,70.79-78.28,111.74-164.26,115.3h0C2729.69,1924,2727,1924,2724.34,1924Zm7.31-17.65h0Zm-92.43-460.53c-24.07,0-49.82,7.62-75.74,27.92-59.35,46.5-78,130.92-44.39,200.75l57.9,120.26c28.82,59.85,89.25,96.88,153.94,94.12h0c71.65-3,116.07-33.19,132-89.82,27.58-97.94-42-258.83-140.47-324.82C2700.1,1459.27,2671.15,1445.85,2639.22,1445.85Z"/><g class="cls-8"><path class="cls-4" d="M1806.92,2487.77l-78,18.72a65.65,65.65,0,0,1-74.47-35.36l-195.94-407a65.65,65.65,0,0,1,43.83-92.31l87.65-21a88.6,88.6,0,0,1,100.51,47.73l175.56,364.61C1890.58,2414.07,1861.85,2474.59,1806.92,2487.77Z"/></g><g class="cls-8"><path class="cls-4" d="M1974.61,2588.58l17.91,37.19a67.79,67.79,0,0,1-45.26,95.33l-108.26,26a59,59,0,0,1-67-31.79L1746.35,2662a59,59,0,0,1,39.41-83l112-26.88A67.79,67.79,0,0,1,1974.61,2588.58Z"/></g><g class="cls-7"><path class="cls-3" d="M2142,1396.55C1971.48,1629,1565.08,1781,1325.25,1782c217.58-29.18,295.52-89.63,204.43-188C1649.13,1650.61,1889.84,1608.74,2142,1396.55Z"/></g><path class="cls-3" d="M1710.29,2310.7c-43.29,0-86.48-21.62-118.48-61.49a21.94,21.94,0,1,1,34.22-27.46c38.78,48.32,86.14,51.5,117.51,38.34,31-13,61.59-48.36,54.49-108.69a21.94,21.94,0,0,1,43.57-5.13c8.21,69.65-23.63,130.21-81.1,154.29A129.52,129.52,0,0,1,1710.29,2310.7Z"/><path class="cls-3" d="M2203.53,2073.25c-38.35,0-77.36-16.76-109-48.75a21.94,21.94,0,1,1,31.2-30.86c42.72,43.17,89.45,41.31,118.95,25.18,29.84-16.34,56.89-55.33,43.3-115.77a21.94,21.94,0,1,1,42.81-9.63c15.6,69.4-9.93,133.73-65.05,163.89A129,129,0,0,1,2203.53,2073.25Z"/><path class="cls-3" d="M2031.47,2298.76c-29.43,0-59.48-15.39-76.9-51.57A17.5,17.5,0,0,1,1986.1,2232c16,33.24,45.65,37.3,67.93,26.56,11.84-5.7,20.79-15.13,25.2-26.55,5-12.94,3.76-27.85-3.59-43.11a17.5,17.5,0,0,1,31.53-15.19c14.72,30.58,10.68,55.44,4.71,70.92-7.63,19.74-22.79,35.89-42.66,45.47A87.4,87.4,0,0,1,2031.47,2298.76Z"/><ellipse class="cls-9" cx="2510.99" cy="2143.13" rx="82.27" ry="42.96" transform="translate(-681.14 1301.46) rotate(-25.71)"/><ellipse class="cls-9" cx="1697.45" cy="2527.06" rx="82.27" ry="42.96" transform="translate(-928.22 986.54) rotate(-25.71)"/><g class="cls-7"><path class="cls-3" d="M2764.23,2326.75,2267.54,1295.14c-6.59,74.15-45,167.94-161.52,266.35a55.67,55.67,0,0,0-14.38,66.67L2460,2393.21s101.7,218.35-123.15,393.27a487.53,487.53,0,0,1-40.71,34.32c5.69-2.66,11.38-5.29,17.09-8,117.22-56.44,220.26-122.07,301.65-188.9C2738.94,2512.66,2800.2,2401.44,2764.23,2326.75Z"/></g><g class="cls-7"><path class="cls-10" d="M2980.71,2034.9a291,291,0,0,0,29.87-33A283,283,0,0,1,2980.71,2034.9Z"/><path class="cls-3" d="M2982.42,2036.72l-3.43-3.64a290.71,290.71,0,0,0,29.62-32.74l3.95,3.06A286.43,286.43,0,0,1,2982.42,2036.72Z"/></g><g class="cls-7"><path class="cls-3" d="M3064.71,1898.17l-.05,0c-.86,2.58-1.73,5.16-2.66,7.72-12.59,35.86-30,68.2-51.42,95.95a291,291,0,0,1-29.87,33,258.45,258.45,0,0,1-70,47.46l-4.39,1.95a259.31,259.31,0,0,1-84.82,20.8c-53.09,4-85.81,59.69-62.71,107.66l-197.6-410.4c31.39,65.18,98.19,107,170.44,104,31.62-1.29,57.73-7.7,79-18.1,28.78,16.62,58.4,28.87,88.22,35.7,54.82,12.56,108.73-26.32,112.83-82.41,7.7-105.37-18.25-226-86.77-342.82-68.35-116.59-146.34-193.09-224.19-234.24-78.73-41.61-173.56,11.12-180.69,99.89-3,37.51.32,77.46,8.93,118.1-47.21,54-57.67,133.1-25.63,199.64l-192.9-400.63c22,45.63,84.51,51.15,114.46,10.31a306.47,306.47,0,0,1,39.06-43.94,1.21,1.21,0,0,1,.38-.35c2-1.91,4.08-3.74,6.17-5.52a9,9,0,0,1,1.51-1.34c2.41-2.05,4.81-4.09,7.25-6s4.8-3.76,7.2-5.58l.7-.5c2.64-2,5.38-3.92,8.09-5.78s5.22-3.57,7.86-5.23a5.3,5.3,0,0,1,.81-.5c2.12-1.36,4.22-2.65,6.39-3.91.9-.55,1.85-1.11,2.77-1.61,1.61-.94,3.18-1.81,4.83-2.66a242,242,0,0,1,109.57-29.67c120.75-3.59,258.78,79.78,370.88,271C3091.09,1608.34,3105.86,1773.31,3064.71,1898.17Z"/></g><g class="cls-11"><ellipse class="cls-3" cx="2000" cy="3392.84" rx="623.91" ry="106.94"/></g></svg>